<?xml version="1.0" standalone="no"?><!DOCTYPE svg PUBLIC "-//W3C//DTD SVG 1.1//EN" "http://www.w3.org/Graphics/SVG/1.1/DTD/svg11.dtd"><svg t="1618075770479" class="icon" viewBox="0 0 1024 1024" version="1.1" xmlns="http://www.w3.org/2000/svg" p-id="2114" xmlns:xlink="http://www.w3.org/1999/xlink" width="200" height="200"><defs><style type="text/css"></style></defs><path d="M791.3 1024H232.7C104.7 1024 0 919.3 0 791.3V232.8C0 104.7 104.7 0 232.7 0h558.5c128 0 232.7 104.7 232.7 232.7v558.5c0.1 128.1-104.6 232.8-232.6 232.8z" fill="#F2F9FF" p-id="2115"></path><path d="M243.4 675.6h-34.9v105.1c0 19.3 16 34.9 34.9 34.9h105.1v-34.9H243.4V675.6z m0-432.2h105.1v-34.9H243.4c-19.3 0-34.9 16-34.9 34.9v105h34.9v-105z m537.2 537.2h-105v34.9h105c19.3 0 34.9-16 34.9-34.9v-105h-34.9v105z m0-572.1h-105v34.9h105v105h34.9v-105c0-18.9-16-34.9-34.9-34.9z m20.5 327c12.2-13.9 12.2-33.2 0-47.1-43.7-47-157.6-152.1-289.1-152.1-131.5 0-243.3 103-289.1 152.1-12.2 13.9-12.2 33.2 0 47.1 43.7 47.1 157.6 152.1 289.1 152.1 131.5 0.1 243.3-102.9 289.1-152.1zM512 599.4c-48.7 0-87.4-38.7-87.4-87.4s38.2-87.4 87.4-87.4 87.4 38.2 87.4 87.4c0 48.7-38.7 87.4-87.4 87.4z" fill="#4ED4FF" p-id="2116"></path></svg>